<svg width="13" height="10" viewBox="0 0 13 10" fill="none" xmlns="http://www.w3.org/2000/svg">
<path fill-rule="evenodd" clip-rule="evenodd" d="M4.5 3.5C4.10218 3.5 3.72064 3.65804 3.43934 3.93934C3.15804 4.22064 3 4.60218 3 5C3 5.39782 3.15804 5.77936 3.43934 6.06066C3.72064 6.34196 4.10218 6.5 4.5 6.5C4.89783 6.5 5.27936 6.34196 5.56066 6.06066C5.84196 5.77936 6 5.39783 6 5C6 4.60218 5.84196 4.22064 5.56066 3.93934C5.27936 3.65804 4.89783 3.5 4.5 3.5ZM2.73223 3.23223C3.20107 2.76339 3.83696 2.5 4.5 2.5C5.16304 2.5 5.79893 2.76339 6.26777 3.23223C6.73661 3.70107 7 4.33696 7 5C7 5.66304 6.73661 6.29893 6.26777 6.76777C5.79893 7.23661 5.16304 7.5 4.5 7.5C3.83696 7.5 3.20107 7.23661 2.73223 6.76777C2.26339 6.29893 2 5.66304 2 5C2 4.33696 2.26339 3.70107 2.73223 3.23223Z" fill="#545454"/>
<path fill-rule="evenodd" clip-rule="evenodd" d="M1.31802 1.81802C2.16193 0.974106 3.30653 0.5 4.5 0.5H8.5C9.69347 0.5 10.8381 0.974106 11.682 1.81802C12.5259 2.66193 13 3.80653 13 5C13 6.19347 12.5259 7.33807 11.682 8.18198C10.8381 9.0259 9.69347 9.5 8.5 9.5H4.5C3.30653 9.5 2.16193 9.0259 1.31802 8.18198C0.474106 7.33807 0 6.19347 0 5C0 3.80653 0.474106 2.66193 1.31802 1.81802ZM4.5 1.5C3.57174 1.5 2.6815 1.86875 2.02513 2.52513C1.36875 3.1815 1 4.07174 1 5C1 5.92826 1.36875 6.8185 2.02513 7.47487C2.6815 8.13125 3.57174 8.5 4.5 8.5H8.5C9.42826 8.5 10.3185 8.13125 10.9749 7.47487C11.6313 6.8185 12 5.92826 12 5C12 4.07174 11.6313 3.1815 10.9749 2.52513C10.3185 1.86875 9.42826 1.5 8.5 1.5H4.5Z" fill="#545454"/>
</svg>
