<svg width="16" height="16" viewBox="0 0 16 16" xmlns="http://www.w3.org/2000/svg">
<path d="M12.8562 3.85625L3.85625 12.8562C3.76068 12.9487 3.63294 13.0003 3.5 13.0003C3.36706 13.0003 3.23932 12.9487 3.14375 12.8562C3.04986 12.7615 2.99719 12.6334 2.99719 12.5C2.99719 12.3666 3.04986 12.2385 3.14375 12.1438L12.1438 3.14375C12.2409 3.06402 12.3642 3.02327 12.4898 3.02944C12.6153 3.0356 12.734 3.08824 12.8229 3.17711C12.9118 3.26597 12.9644 3.38472 12.9706 3.51024C12.9767 3.63577 12.936 3.7591 12.8562 3.85625V3.85625ZM4 7C4 7.13261 4.05268 7.25979 4.14645 7.35355C4.24021 7.44732 4.36739 7.5 4.5 7.5C4.63261 7.5 4.75979 7.44732 4.85355 7.35355C4.94732 7.25979 5 7.13261 5 7V5H7C7.13261 5 7.25979 4.94732 7.35355 4.85355C7.44732 4.75979 7.5 4.63261 7.5 4.5C7.5 4.36739 7.44732 4.24021 7.35355 4.14645C7.25979 4.05268 7.13261 4 7 4H5V2C5 1.86739 4.94732 1.74021 4.85355 1.64645C4.75979 1.55268 4.63261 1.5 4.5 1.5C4.36739 1.5 4.24021 1.55268 4.14645 1.64645C4.05268 1.74021 4 1.86739 4 2V4H2C1.86739 4 1.74021 4.05268 1.64645 4.14645C1.55268 4.24021 1.5 4.36739 1.5 4.5C1.5 4.63261 1.55268 4.75979 1.64645 4.85355C1.74021 4.94732 1.86739 5 2 5H4V7ZM14 11H9C8.86739 11 8.74021 11.0527 8.64645 11.1464C8.55268 11.2402 8.5 11.3674 8.5 11.5C8.5 11.6326 8.55268 11.7598 8.64645 11.8536C8.74021 11.9473 8.86739 12 9 12H14C14.1326 12 14.2598 11.9473 14.3536 11.8536C14.4473 11.7598 14.5 11.6326 14.5 11.5C14.5 11.3674 14.4473 11.2402 14.3536 11.1464C14.2598 11.0527 14.1326 11 14 11Z" />
</svg>
