<svg width="16" height="16" viewBox="0 0 16 16" xmlns="http://www.w3.org/2000/svg">
<path fill-rule="evenodd" clip-rule="evenodd" d="M9 12H3C2.44772 12 2 12.4477 2 13C2 13.5523 2.44772 14 3 14H9C9.55228 14 10 13.5523 10 13C10 12.4477 9.55229 12 9 12ZM3 11C1.89543 11 1 11.8954 1 13C1 14.1046 1.89543 15 3 15H9C10.1046 15 11 14.1046 11 13C11 11.8954 10.1046 11 9 11H3Z" />
<path fill-rule="evenodd" clip-rule="evenodd" d="M9 2H3C2.44772 2 2 2.44772 2 3C2 3.55228 2.44772 4 3 4H9C9.55228 4 10 3.55228 10 3C10 2.44772 9.55229 2 9 2ZM3 1C1.89543 1 1 1.89543 1 3C1 4.10457 1.89543 5 3 5H9C10.1046 5 11 4.10457 11 3C11 1.89543 10.1046 1 9 1H3Z" />
<path fill-rule="evenodd" clip-rule="evenodd" d="M10 7H14V8H10V7Z" />
<path fill-rule="evenodd" clip-rule="evenodd" d="M9 7H3C2.44772 7 2 7.44772 2 8C2 8.55228 2.44772 9 3 9H9C9.55228 9 10 8.55228 10 8C10 7.44772 9.55229 7 9 7ZM3 6C1.89543 6 1 6.89543 1 8C1 9.10457 1.89543 10 3 10H9C10.1046 10 11 9.10457 11 8C11 6.89543 10.1046 6 9 6H3Z" />
<path fill-rule="evenodd" clip-rule="evenodd" d="M13.5 3H10V2H13.5C14.3284 2 15 2.67157 15 3.5V11.5C15 12.3284 14.3284 13 13.5 13H10V12H13.5C13.7761 12 14 11.7761 14 11.5V3.5C14 3.22386 13.7761 3 13.5 3Z" />
</svg>
