<svg width="16" height="16" viewBox="0 0 16 16" xmlns="http://www.w3.org/2000/svg">
<path fill-rule="evenodd" clip-rule="evenodd" d="M12.8535 3.14645C13.0488 3.34171 13.0488 3.65829 12.8535 3.85355L3.85354 12.8535C3.65828 13.0488 3.3417 13.0488 3.14644 12.8536C2.95117 12.6583 2.95117 12.3417 3.14644 12.1464L12.1464 3.14645C12.3417 2.95118 12.6583 2.95118 12.8535 3.14645Z" />
<path fill-rule="evenodd" clip-rule="evenodd" d="M5 6C5.55228 6 6 5.55228 6 5C6 4.44772 5.55228 4 5 4C4.44772 4 4 4.44772 4 5C4 5.55228 4.44772 6 5 6ZM5 7C6.10457 7 7 6.10457 7 5C7 3.89543 6.10457 3 5 3C3.89543 3 3 3.89543 3 5C3 6.10457 3.89543 7 5 7Z" />
<path fill-rule="evenodd" clip-rule="evenodd" d="M11 12C11.5523 12 12 11.5523 12 11C12 10.4477 11.5523 10 11 10C10.4477 10 10 10.4477 10 11C10 11.5523 10.4477 12 11 12ZM11 13C12.1046 13 13 12.1046 13 11C13 9.89543 12.1046 9 11 9C9.89543 9 9 9.89543 9 11C9 12.1046 9.89543 13 11 13Z" />
</svg>
