<svg width="16" height="16" viewBox="0 0 16 16" xmlns="http://www.w3.org/2000/svg">
<path d="M9.99994 7.94629C9.85931 9.54004 8.74619 10.4463 7.48275 10.4463C6.21931 10.4463 5.37837 9.32691 5.49994 7.94629C5.6215 6.56566 6.65994 5.44629 7.92337 5.44629C9.18681 5.44629 10.1212 6.57129 9.99994 7.94629Z" stroke="black" stroke-linecap="round" stroke-linejoin="round"/>
<path d="M9.99273 12.9932C9.10023 13.3682 8.51523 13.4463 7.51523 13.4463C4.47773 13.4463 2.23398 10.9838 2.49991 7.94629C2.76585 4.90879 5.4471 2.44629 8.4846 2.44629C11.9062 2.44629 13.7871 4.68785 13.5227 7.68786C13.3255 9.92754 11.8943 10.5729 11.1449 10.44C10.4399 10.315 9.85804 9.67692 9.96554 8.45567L10.2305 5.44785" stroke="black" stroke-linecap="round" stroke-linejoin="round"/>
</svg>
