<svg width="16" height="16" viewBox="0 0 16 16" fill="none" xmlns="http://www.w3.org/2000/svg">
<path d="M9.99994 7.9458C9.85931 9.53955 8.74619 10.4458 7.48275 10.4458C6.21931 10.4458 5.37837 9.32643 5.49994 7.9458C5.6215 6.56518 6.65994 5.4458 7.92337 5.4458C9.18681 5.4458 10.1212 6.5708 9.99994 7.9458Z" stroke="#3F3F46" stroke-linecap="round" stroke-linejoin="round"/>
<path d="M9.99273 12.9927C9.10023 13.3677 8.51523 13.4458 7.51523 13.4458C4.47773 13.4458 2.23398 10.9833 2.49991 7.9458C2.76585 4.9083 5.4471 2.4458 8.4846 2.4458C11.9062 2.4458 13.7871 4.68737 13.5227 7.68737C13.3255 9.92706 11.8943 10.5724 11.1449 10.4396C10.4399 10.3146 9.85804 9.67643 9.96554 8.45518L10.2305 5.44737" stroke="#3F3F46" stroke-linecap="round" stroke-linejoin="round"/>
</svg>
