<svg width="16" height="16" viewBox="0 0 16 16" xmlns="http://www.w3.org/2000/svg">
<path fill-rule="evenodd" clip-rule="evenodd" d="M5.5 1C5.77614 1 6 1.22386 6 1.5V2H10V1.5C10 1.22386 10.2239 1 10.5 1C10.7761 1 11 1.22386 11 1.5V2C12.6569 2 14 3.34315 14 5V11C14 12.6569 12.6569 14 11 14H5C3.34315 14 2 12.6569 2 11V5C2 3.34315 3.34315 2 5 2V1.5C5 1.22386 5.22386 1 5.5 1ZM10 3V3.5C10 3.77614 10.2239 4 10.5 4C10.7761 4 11 3.77614 11 3.5V3C12.1046 3 13 3.89543 13 5V6H3V5C3 3.89543 3.89543 3 5 3V3.5C5 3.77614 5.22386 4 5.5 4C5.77614 4 6 3.77614 6 3.5V3H10ZM3 7V11C3 12.1046 3.89543 13 5 13H11C12.1046 13 13 12.1046 13 11V7H3Z" />
<circle cx="5.5" cy="8.5" r="0.5"/>
<circle cx="8" cy="8.5" r="0.5" />
<circle cx="10.5" cy="8.5" r="0.5" />
<circle cx="10.5" cy="10.5" r="0.5" />
<circle cx="8" cy="10.5" r="0.5" />
<circle cx="5.5" cy="10.5" r="0.5" />
</svg>
