<svg width="13" height="14" viewBox="0 0 13 14" xmlns="http://www.w3.org/2000/svg">
<path fill-rule="evenodd" clip-rule="evenodd" d="M4 0.5C4 0.223858 3.77614 0 3.5 0C3.22386 0 3 0.223858 3 0.5V1C1.34315 1 0 2.34315 0 4V10C0 11.6569 1.34315 13 3 13H7.05051C7.68178 13.6186 8.54635 14 9.5 14C11.433 14 13 12.433 13 10.5C13 9.54635 12.6186 8.68178 12 8.05051V4C12 2.34315 10.6569 1 9 1V0.5C9 0.223858 8.77614 0 8.5 0C8.22386 0 8 0.223858 8 0.5V1H4V0.5ZM6 10.5C6 11.0368 6.12085 11.5454 6.33682 12H3C1.89543 12 1 11.1046 1 10V6H11V7.33682C10.5454 7.12085 10.0368 7 9.5 7C7.567 7 6 8.567 6 10.5ZM8 2.5V2H4V2.5C4 2.77614 3.77614 3 3.5 3C3.22386 3 3 2.77614 3 2.5V2C1.89543 2 1 2.89543 1 4V5H11V4C11 2.89543 10.1046 2 9 2V2.5C9 2.77614 8.77614 3 8.5 3C8.22386 3 8 2.77614 8 2.5ZM3.5 8C3.77614 8 4 7.77614 4 7.5C4 7.22386 3.77614 7 3.5 7C3.22386 7 3 7.22386 3 7.5C3 7.77614 3.22386 8 3.5 8ZM6 8C6.27614 8 6.5 7.77614 6.5 7.5C6.5 7.22386 6.27614 7 6 7C5.72386 7 5.5 7.22386 5.5 7.5C5.5 7.77614 5.72386 8 6 8ZM4 9.5C4 9.77614 3.77614 10 3.5 10C3.22386 10 3 9.77614 3 9.5C3 9.22386 3.22386 9 3.5 9C3.77614 9 4 9.22386 4 9.5ZM12 10.5C12 11.8807 10.8807 13 9.5 13C8.11929 13 7 11.8807 7 10.5C7 9.11929 8.11929 8 9.5 8C10.8807 8 12 9.11929 12 10.5ZM10 9.5C10 9.22386 9.77614 9 9.5 9C9.22386 9 9 9.22386 9 9.5V10.7071L10.1464 11.8536C10.3417 12.0488 10.6583 12.0488 10.8536 11.8536C11.0488 11.6583 11.0488 11.3417 10.8536 11.1464L10 10.2929V9.5Z" />
</svg>
