<svg width="16" height="16" viewBox="0 0 16 16" xmlns="http://www.w3.org/2000/svg">
<path fill-rule="evenodd" clip-rule="evenodd" d="M6 12.5C6 13.8807 4.88071 15 3.5 15C2.11929 15 1 13.8807 1 12.5C1 11.1193 2.11929 10 3.5 10C4.88071 10 6 11.1193 6 12.5ZM3.5 14C4.32843 14 5 13.3284 5 12.5C5 11.6716 4.32843 11 3.5 11C2.67157 11 2 11.6716 2 12.5C2 13.3284 2.67157 14 3.5 14Z" />
<path fill-rule="evenodd" clip-rule="evenodd" d="M15 12.5C15 13.8807 13.8807 15 12.5 15C11.1193 15 10 13.8807 10 12.5C10 11.1193 11.1193 10 12.5 10C13.8807 10 15 11.1193 15 12.5ZM12.5 14C13.3284 14 14 13.3284 14 12.5C14 11.6716 13.3284 11 12.5 11C11.6716 11 11 11.6716 11 12.5C11 13.3284 11.6716 14 12.5 14Z" />
<path fill-rule="evenodd" clip-rule="evenodd" d="M3 9.5C3 8.11929 4.11929 7 5.5 7H10.5C11.8807 7 13 8.11929 13 9.5V10.5H12V9.5C12 8.67157 11.3284 8 10.5 8H5.5C4.67157 8 4 8.67157 4 9.5V10.5H3V9.5Z" />
<path fill-rule="evenodd" clip-rule="evenodd" d="M7.5 8V4.5H8.5V8H7.5Z" />
<path fill-rule="evenodd" clip-rule="evenodd" d="M9 2H7C6.44772 2 6 2.44772 6 3C6 3.55228 6.44772 4 7 4H9C9.55228 4 10 3.55228 10 3C10 2.44772 9.55228 2 9 2ZM7 1C5.89543 1 5 1.89543 5 3C5 4.10457 5.89543 5 7 5H9C10.1046 5 11 4.10457 11 3C11 1.89543 10.1046 1 9 1H7Z" />
</svg>
