<svg width="16" height="16" viewBox="0 0 16 16" xmlns="http://www.w3.org/2000/svg">
<path fill-rule="evenodd" clip-rule="evenodd" d="M7.66683 1.83301C4.44517 1.83301 1.8335 4.44468 1.8335 7.66634C1.8335 10.888 4.44517 13.4997 7.66683 13.4997C10.8885 13.4997 13.5002 10.888 13.5002 7.66634C13.5002 4.44468 10.8885 1.83301 7.66683 1.83301ZM0.833496 7.66634C0.833496 3.8924 3.89288 0.833008 7.66683 0.833008C11.4408 0.833008 14.5002 3.8924 14.5002 7.66634C14.5002 11.4403 11.4408 14.4997 7.66683 14.4997C3.89288 14.4997 0.833496 11.4403 0.833496 7.66634Z" />
<path fill-rule="evenodd" clip-rule="evenodd" d="M13.3336 12.626L15.374 14.6664L14.6669 15.3735L12.6265 13.3331L13.3336 12.626Z" />
</svg>
